<svg width="17" height="17" viewBox="0 0 17 17" fill="none" xmlns="http://www.w3.org/2000/svg">
<path d="M15.8554 5.81479C15.8883 6.99691 15.4693 8.14711 14.6837 9.03098C13.898 9.91485 12.8048 10.4658 11.627 10.5717C11.6183 10.2097 11.5468 9.85205 11.4156 9.51459C12.335 9.42003 13.1877 8.99088 13.8113 8.30872C14.435 7.62657 14.7863 6.739 14.7983 5.81479C14.7948 4.8614 14.4241 3.94601 13.7633 3.25878C13.1025 2.57155 12.2023 2.16533 11.2498 2.12451C10.2973 2.08369 9.36568 2.4114 8.64849 3.03957C7.93131 3.66774 7.4837 4.54807 7.39867 5.49766C7.05831 5.37671 6.70228 5.30551 6.34158 5.28625C6.49852 4.12937 7.06452 3.06692 7.93711 2.29129C8.80969 1.51566 9.93116 1.07812 11.0985 1.0579C11.7239 1.05525 12.3437 1.17647 12.922 1.41459C13.5003 1.6527 14.0258 2.00299 14.468 2.44524C14.9103 2.88749 15.2606 3.41294 15.4987 3.99127C15.7368 4.5696 15.858 5.18936 15.8554 5.81479ZM5.81304 6.34333C4.87222 6.34333 3.95252 6.62232 3.17026 7.14501C2.38799 7.6677 1.77829 8.41063 1.41825 9.27984C1.05821 10.149 0.964011 11.1055 1.14756 12.0282C1.3311 12.951 1.78415 13.7986 2.44941 14.4638C3.11468 15.1291 3.96227 15.5822 4.88502 15.7657C5.80776 15.9492 6.76421 15.855 7.63342 15.495C8.50263 15.135 9.24555 14.5253 9.76824 13.743C10.2909 12.9607 10.5699 12.041 10.5699 11.1002C10.5699 10.4755 10.4469 9.85697 10.2078 9.27984C9.96877 8.7027 9.61838 8.17831 9.17666 7.73659C8.73495 7.29487 8.21055 6.94448 7.63342 6.70543C7.05629 6.46637 6.43772 6.34333 5.81304 6.34333Z" fill="#C5C5C5"/>
</svg>
